<svg width="48" height="48" viewBox="0 0 48 48" fill="none" xmlns="http://www.w3.org/2000/svg">
<g filter="url(#filter0_d)">
<path d="M39.7143 40H8.28571C5.91875 40 4 38.0813 4 35.7143V4.28571C4 1.91875 5.91875 0 8.28571 0H39.7143C42.0813 0 44 1.91875 44 4.28571V35.7143C44 38.0813 42.0813 40 39.7143 40ZM21.4387 31.2447L37.8673 14.8162C38.4252 14.2583 38.4252 13.3538 37.8673 12.7959L35.8471 10.7756C35.2892 10.2178 34.3846 10.2177 33.8267 10.7756L20.4286 24.1737L14.1733 17.9184C13.6154 17.3605 12.7109 17.3605 12.1529 17.9184L10.1327 19.9387C9.57482 20.4965 9.57482 21.4011 10.1327 21.9589L19.4184 31.2446C19.9763 31.8027 20.8808 31.8027 21.4387 31.2447Z" fill="#30C2FF"/>
</g>
<defs>
<filter id="filter0_d" x="0" y="0" width="48" height="48" filterUnits="userSpaceOnUse" color-interpolation-filters="sRGB">
<feFlood flood-opacity="0" result="BackgroundImageFix"/>
<feColorMatrix in="SourceAlpha" type="matrix" values="0 0 0 0 0 0 0 0 0 0 0 0 0 0 0 0 0 0 127 0"/>
<feOffset dy="4"/>
<feGaussianBlur stdDeviation="2"/>
<feColorMatrix type="matrix" values="0 0 0 0 0 0 0 0 0 0 0 0 0 0 0 0 0 0 0.25 0"/>
<feBlend mode="normal" in2="BackgroundImageFix" result="effect1_dropShadow"/>
<feBlend mode="normal" in="SourceGraphic" in2="effect1_dropShadow" result="shape"/>
</filter>
</defs>
</svg>
