<svg width="688" height="308" viewBox="0 0 688 308" fill="none" xmlns="http://www.w3.org/2000/svg">
<path opacity="0.1" d="M686.601 197.474C686.609 205.832 685.229 214.15 682.498 222.194C679.859 229.948 675.977 237.371 670.956 244.262C670.956 269.231 650.7 290.811 621.297 301.078C609.011 305.325 595.831 307.493 582.527 307.457H131.474C107.366 307.457 85.0248 302.044 66.7028 292.824C61.4592 290.198 56.485 287.216 51.8308 283.908C31.4664 269.346 18.8405 249.221 18.8405 226.993C7.41134 212.349 1.35108 195.254 1.39896 177.793C1.39896 141.231 27.3875 109.794 64.6184 95.9136C69.5623 94.0714 74.6708 92.5518 79.8977 91.3684C81.7465 90.9498 83.6152 90.5743 85.5039 90.242C90.5388 89.3499 95.6456 88.7669 100.783 88.4977C102.64 88.4014 104.507 88.3465 106.383 88.3332H107.414C109.486 88.3332 111.54 88.393 113.583 88.4927L114.254 87.5458C115.076 86.4028 115.919 85.2715 116.781 84.1518C118.339 82.1118 119.972 80.1016 121.681 78.1214C123.47 76.0315 125.336 73.9749 127.281 71.9514L127.778 71.453C128.88 70.3101 130.006 69.1804 131.156 68.064C134.75 64.5787 138.543 61.198 142.536 57.922C185.727 22.6963 253.39 0.0199585 329.457 0.0199585C388.646 0.0199585 442.749 13.7504 484.191 36.4367C499.891 29.044 517.626 25.165 535.665 25.1783C594.207 25.1783 641.68 65.2332 641.68 114.643C641.671 117.769 641.471 120.893 641.081 124.002C655.192 132.314 666.694 143.329 674.617 156.116C682.539 168.903 686.65 183.088 686.601 197.474V197.474Z" fill="#2E3633"/>
<path opacity="0.2" d="M142.548 57.902V68.0441H131.168C134.734 64.562 138.527 61.1813 142.548 57.902Z" fill="#38D39F"/>
<path opacity="0.2" d="M163.434 55.3304H148.154V68.0441H163.434V55.3304Z" fill="#38D39F"/>
<path opacity="0.2" d="M184.313 55.3304H169.034V68.0441H184.313V55.3304Z" fill="#38D39F"/>
<path opacity="0.2" d="M205.199 55.3304H189.919V68.0441H205.199V55.3304Z" fill="#38D39F"/>
<path opacity="0.2" d="M226.078 55.3304H210.799V68.0441H226.078V55.3304Z" fill="#38D39F"/>
<path opacity="0.2" d="M246.964 55.3304H231.684V68.0441H246.964V55.3304Z" fill="#38D39F"/>
<path d="M267.849 55.3304H252.57V68.0441H267.849V55.3304Z" fill="#38D39F"/>
<path opacity="0.2" d="M288.729 55.3304H273.449V68.0441H288.729V55.3304Z" fill="#38D39F"/>
<path opacity="0.2" d="M309.614 55.3304H294.335V68.0441H309.614V55.3304Z" fill="#38D39F"/>
<path opacity="0.2" d="M330.494 55.3304H315.214V68.0441H330.494V55.3304Z" fill="#38D39F"/>
<path d="M351.379 55.3304H336.1V68.0441H351.379V55.3304Z" fill="#38D39F"/>
<path opacity="0.2" d="M372.265 55.3304H356.985V68.0441H372.265V55.3304Z" fill="#38D39F"/>
<path opacity="0.2" d="M393.144 55.3304H377.865V68.0441H393.144V55.3304Z" fill="#38D39F"/>
<path opacity="0.2" d="M414.03 55.3304H398.75V68.0441H414.03V55.3304Z" fill="#38D39F"/>
<path opacity="0.2" d="M434.915 55.3304H419.636V68.0441H434.915V55.3304Z" fill="#38D39F"/>
<path opacity="0.2" d="M455.795 55.3304H440.515V68.0441H455.795V55.3304Z" fill="#38D39F"/>
<path opacity="0.2" d="M476.68 55.3304H461.401V68.0441H476.68V55.3304Z" fill="#38D39F"/>
<path d="M497.56 55.3304H482.28V68.0441H497.56V55.3304Z" fill="#38D39F"/>
<path d="M518.445 55.3304H503.166V68.0441H518.445V55.3304Z" fill="#38D39F"/>
<path opacity="0.2" d="M539.331 55.3304H524.051V68.0441H539.331V55.3304Z" fill="#38D39F"/>
<path opacity="0.2" d="M560.21 55.3304H544.931V68.0441H560.21V55.3304Z" fill="#38D39F"/>
<path d="M581.096 55.3304H565.816V68.0441H581.096V55.3304Z" fill="#38D39F"/>
<path d="M601.975 55.3304H586.696V68.0441H601.975V55.3304Z" fill="#38D39F"/>
<path d="M121.669 78.1164V84.1468H116.769C118.327 82.0935 119.96 80.0833 121.669 78.1164Z" fill="#38D39F"/>
<path opacity="0.2" d="M142.548 71.433H127.269V84.1468H142.548V71.433Z" fill="#38D39F"/>
<path d="M163.434 71.433H148.154V84.1468H163.434V71.433Z" fill="#38D39F"/>
<path opacity="0.2" d="M184.313 71.433H169.034V84.1468H184.313V71.433Z" fill="#38D39F"/>
<path opacity="0.7" d="M205.199 71.433H189.919V84.1468H205.199V71.433Z" fill="#38D39F"/>
<path opacity="0.2" d="M226.078 71.433H210.799V84.1468H226.078V71.433Z" fill="#38D39F"/>
<path opacity="0.4" d="M246.964 71.433H231.684V84.1468H246.964V71.433Z" fill="#38D39F"/>
<path d="M267.849 71.433H252.57V84.1468H267.849V71.433Z" fill="#38D39F"/>
<path opacity="0.4" d="M288.729 71.433H273.449V84.1468H288.729V71.433Z" fill="#38D39F"/>
<path opacity="0.2" d="M309.614 71.433H294.335V84.1468H309.614V71.433Z" fill="#38D39F"/>
<path opacity="0.4" d="M330.494 71.433H315.214V84.1468H330.494V71.433Z" fill="#38D39F"/>
<path d="M351.379 71.433H336.1V84.1468H351.379V71.433Z" fill="#38D39F"/>
<path opacity="0.4" d="M372.265 71.433H356.985V84.1468H372.265V71.433Z" fill="#38D39F"/>
<path opacity="0.4" d="M393.144 71.433H377.865V84.1468H393.144V71.433Z" fill="#38D39F"/>
<path opacity="0.2" d="M414.03 71.433H398.75V84.1468H414.03V71.433Z" fill="#38D39F"/>
<path opacity="0.4" d="M434.915 71.433H419.636V84.1468H434.915V71.433Z" fill="#38D39F"/>
<path opacity="0.4" d="M455.795 71.433H440.515V84.1468H455.795V71.433Z" fill="#38D39F"/>
<path opacity="0.2" d="M476.68 71.433H461.401V84.1468H476.68V71.433Z" fill="#38D39F"/>
<path opacity="0.2" d="M497.56 71.433H482.28V84.1468H497.56V71.433Z" fill="#38D39F"/>
<path opacity="0.4" d="M518.445 71.433H503.166V84.1468H518.445V71.433Z" fill="#38D39F"/>
<path opacity="0.2" d="M539.331 71.433H524.051V84.1468H539.331V71.433Z" fill="#38D39F"/>
<path d="M560.21 71.433H544.931V84.1468H560.21V71.433Z" fill="#38D39F"/>
<path d="M581.096 71.433H565.816V84.1468H581.096V71.433Z" fill="#38D39F"/>
<path d="M601.975 71.433H586.696V84.1468H601.975V71.433Z" fill="#38D39F"/>
<path opacity="0.2" d="M79.8978 91.3684V100.254H64.6185V95.9136C69.5624 94.0714 74.6709 92.5517 79.8978 91.3684V91.3684Z" fill="#38D39F"/>
<path opacity="0.2" d="M100.783 88.4977V100.255H85.504V90.242L100.783 88.4977Z" fill="#38D39F"/>
<path d="M121.663 87.5408H106.383V100.255H121.663V87.5408Z" fill="#38D39F"/>
<path opacity="0.7" d="M142.548 87.5408H127.269V100.255H142.548V87.5408Z" fill="#38D39F"/>
<path d="M163.434 87.5408H148.154V100.255H163.434V87.5408Z" fill="#38D39F"/>
<path opacity="0.7" d="M184.313 87.5408H169.034V100.255H184.313V87.5408Z" fill="#38D39F"/>
<path opacity="0.7" d="M205.199 87.5408H189.919V100.255H205.199V87.5408Z" fill="#38D39F"/>
<path opacity="0.2" d="M226.078 87.5408H210.799V100.255H226.078V87.5408Z" fill="#38D39F"/>
<path opacity="0.4" d="M246.964 87.5408H231.684V100.255H246.964V87.5408Z" fill="#38D39F"/>
<path opacity="0.4" d="M267.849 87.5408H252.57V100.255H267.849V87.5408Z" fill="#38D39F"/>
<path d="M288.729 87.5408H273.449V100.255H288.729V87.5408Z" fill="#38D39F"/>
<path opacity="0.2" d="M309.614 87.5408H294.335V100.255H309.614V87.5408Z" fill="#38D39F"/>
<path opacity="0.4" d="M330.494 87.5408H315.214V100.255H330.494V87.5408Z" fill="#38D39F"/>
<path d="M351.379 87.5408H336.1V100.255H351.379V87.5408Z" fill="#38D39F"/>
<path opacity="0.2" d="M372.265 87.5408H356.985V100.255H372.265V87.5408Z" fill="#38D39F"/>
<path opacity="0.4" d="M393.144 87.5408H377.865V100.255H393.144V87.5408Z" fill="#38D39F"/>
<path opacity="0.2" d="M414.03 87.5408H398.75V100.255H414.03V87.5408Z" fill="#38D39F"/>
<path d="M434.915 87.5408H419.636V100.255H434.915V87.5408Z" fill="#38D39F"/>
<path opacity="0.2" d="M455.795 87.5408H440.515V100.255H455.795V87.5408Z" fill="#38D39F"/>
<path opacity="0.7" d="M476.68 87.5408H461.401V100.255H476.68V87.5408Z" fill="#38D39F"/>
<path opacity="0.7" d="M497.56 87.5408H482.28V100.255H497.56V87.5408Z" fill="#38D39F"/>
<path opacity="0.4" d="M518.445 87.5408H503.166V100.255H518.445V87.5408Z" fill="#38D39F"/>
<path opacity="0.2" d="M539.331 87.5408H524.051V100.255H539.331V87.5408Z" fill="#38D39F"/>
<path d="M560.21 87.5408H544.931V100.255H560.21V87.5408Z" fill="#38D39F"/>
<path d="M581.096 87.5408H565.816V100.255H581.096V87.5408Z" fill="#38D39F"/>
<path d="M601.975 87.5408H586.696V100.255H601.975V87.5408Z" fill="#38D39F"/>
<path opacity="0.2" d="M79.8978 103.643H64.6185V116.357H79.8978V103.643Z" fill="#38D39F"/>
<path opacity="0.2" d="M100.783 103.643H85.504V116.357H100.783V103.643Z" fill="#38D39F"/>
<path opacity="0.2" d="M121.663 103.643H106.383V116.357H121.663V103.643Z" fill="#38D39F"/>
<path opacity="0.2" d="M142.548 103.643H127.269V116.357H142.548V103.643Z" fill="#38D39F"/>
<path d="M163.434 103.643H148.154V116.357H163.434V103.643Z" fill="#38D39F"/>
<path opacity="0.7" d="M184.313 103.643H169.034V116.357H184.313V103.643Z" fill="#38D39F"/>
<path opacity="0.7" d="M205.199 103.643H189.919V116.357H205.199V103.643Z" fill="#38D39F"/>
<path opacity="0.2" d="M226.078 103.643H210.799V116.357H226.078V103.643Z" fill="#38D39F"/>
<path opacity="0.2" d="M246.964 103.643H231.684V116.357H246.964V103.643Z" fill="#38D39F"/>
<path opacity="0.4" d="M267.849 103.643H252.57V116.357H267.849V103.643Z" fill="#38D39F"/>
<path opacity="0.4" d="M288.729 103.643H273.449V116.357H288.729V103.643Z" fill="#38D39F"/>
<path d="M309.614 103.643H294.335V116.357H309.614V103.643Z" fill="#38D39F"/>
<path opacity="0.2" d="M330.494 103.643H315.214V116.357H330.494V103.643Z" fill="#38D39F"/>
<path opacity="0.4" d="M351.379 103.643H336.1V116.357H351.379V103.643Z" fill="#38D39F"/>
<path opacity="0.4" d="M372.265 103.643H356.985V116.357H372.265V103.643Z" fill="#38D39F"/>
<path opacity="0.4" d="M393.144 103.643H377.865V116.357H393.144V103.643Z" fill="#38D39F"/>
<path opacity="0.4" d="M414.03 103.643H398.75V116.357H414.03V103.643Z" fill="#38D39F"/>
<path opacity="0.2" d="M434.915 103.643H419.636V116.357H434.915V103.643Z" fill="#38D39F"/>
<path opacity="0.2" d="M455.795 103.643H440.515V116.357H455.795V103.643Z" fill="#38D39F"/>
<path opacity="0.2" d="M476.68 103.643H461.401V116.357H476.68V103.643Z" fill="#38D39F"/>
<path opacity="0.2" d="M497.56 103.643H482.28V116.357H497.56V103.643Z" fill="#38D39F"/>
<path opacity="0.7" d="M518.445 103.643H503.166V116.357H518.445V103.643Z" fill="#38D39F"/>
<path opacity="0.7" d="M539.331 103.643H524.051V116.357H539.331V103.643Z" fill="#38D39F"/>
<path opacity="0.4" d="M560.21 103.643H544.931V116.357H560.21V103.643Z" fill="#38D39F"/>
<path opacity="0.2" d="M581.096 103.643H565.816V116.357H581.096V103.643Z" fill="#38D39F"/>
<path d="M601.975 103.643H586.696V116.357H601.975V103.643Z" fill="#38D39F"/>
<path opacity="0.2" d="M79.8978 119.751H64.6185V132.465H79.8978V119.751Z" fill="#38D39F"/>
<path opacity="0.2" d="M100.783 119.751H85.504V132.465H100.783V119.751Z" fill="#38D39F"/>
<path opacity="0.4" d="M121.663 119.751H106.383V132.465H121.663V119.751Z" fill="#38D39F"/>
<path opacity="0.2" d="M142.548 119.751H127.269V132.465H142.548V119.751Z" fill="#38D39F"/>
<path opacity="0.2" d="M163.434 119.751H148.154V132.465H163.434V119.751Z" fill="#38D39F"/>
<path opacity="0.7" d="M184.313 119.751H169.034V132.465H184.313V119.751Z" fill="#38D39F"/>
<path opacity="0.7" d="M205.199 119.751H189.919V132.465H205.199V119.751Z" fill="#38D39F"/>
<path opacity="0.2" d="M226.078 119.751H210.799V132.465H226.078V119.751Z" fill="#38D39F"/>
<path opacity="0.2" d="M246.964 119.751H231.684V132.465H246.964V119.751Z" fill="#38D39F"/>
<path opacity="0.4" d="M267.849 119.751H252.57V132.465H267.849V119.751Z" fill="#38D39F"/>
<path d="M288.729 119.751H273.449V132.465H288.729V119.751Z" fill="#38D39F"/>
<path opacity="0.2" d="M309.614 119.751H294.335V132.465H309.614V119.751Z" fill="#38D39F"/>
<path d="M330.494 119.751H315.214V132.465H330.494V119.751Z" fill="#38D39F"/>
<path d="M351.379 119.751H336.1V132.465H351.379V119.751Z" fill="#38D39F"/>
<path d="M372.265 119.751H356.985V132.465H372.265V119.751Z" fill="#38D39F"/>
<path opacity="0.2" d="M393.144 119.751H377.865V132.465H393.144V119.751Z" fill="#38D39F"/>
<path d="M414.03 119.751H398.75V132.465H414.03V119.751Z" fill="#38D39F"/>
<path opacity="0.2" d="M434.915 119.751H419.636V132.465H434.915V119.751Z" fill="#38D39F"/>
<path opacity="0.2" d="M455.795 119.751H440.515V132.465H455.795V119.751Z" fill="#38D39F"/>
<path opacity="0.2" d="M476.68 119.751H461.401V132.465H476.68V119.751Z" fill="#38D39F"/>
<path opacity="0.2" d="M497.56 119.751H482.28V132.465H497.56V119.751Z" fill="#38D39F"/>
<path opacity="0.2" d="M518.445 119.751H503.166V132.465H518.445V119.751Z" fill="#38D39F"/>
<path opacity="0.7" d="M539.331 119.751H524.051V132.465H539.331V119.751Z" fill="#38D39F"/>
<path opacity="0.2" d="M560.21 119.751H544.931V132.465H560.21V119.751Z" fill="#38D39F"/>
<path opacity="0.2" d="M581.096 119.751H565.816V132.465H581.096V119.751Z" fill="#38D39F"/>
<path d="M601.975 119.751H586.696V132.465H601.975V119.751Z" fill="#38D39F"/>
<path opacity="0.2" d="M79.8978 135.854H64.6185V148.568H79.8978V135.854Z" fill="#38D39F"/>
<path opacity="0.2" d="M100.783 135.854H85.504V148.568H100.783V135.854Z" fill="#38D39F"/>
<path opacity="0.2" d="M121.663 135.854H106.383V148.568H121.663V135.854Z" fill="#38D39F"/>
<path opacity="0.4" d="M142.548 135.854H127.269V148.568H142.548V135.854Z" fill="#38D39F"/>
<path opacity="0.2" d="M163.434 135.854H148.154V148.568H163.434V135.854Z" fill="#38D39F"/>
<path opacity="0.2" d="M184.313 135.854H169.034V148.568H184.313V135.854Z" fill="#38D39F"/>
<path opacity="0.7" d="M205.199 135.854H189.919V148.568H205.199V135.854Z" fill="#38D39F"/>
<path opacity="0.2" d="M226.078 135.854H210.799V148.568H226.078V135.854Z" fill="#38D39F"/>
<path opacity="0.2" d="M246.964 135.854H231.684V148.568H246.964V135.854Z" fill="#38D39F"/>
<path opacity="0.2" d="M267.849 135.854H252.57V148.568H267.849V135.854Z" fill="#38D39F"/>
<path d="M288.729 135.854H273.449V148.568H288.729V135.854Z" fill="#38D39F"/>
<path opacity="0.2" d="M309.614 135.854H294.335V148.568H309.614V135.854Z" fill="#38D39F"/>
<path d="M330.494 135.854H315.214V148.568H330.494V135.854Z" fill="#38D39F"/>
<path d="M351.379 135.854H336.1V148.568H351.379V135.854Z" fill="#38D39F"/>
<path opacity="0.2" d="M372.265 135.854H356.985V148.568H372.265V135.854Z" fill="#38D39F"/>
<path opacity="0.2" d="M393.144 135.854H377.865V148.568H393.144V135.854Z" fill="#38D39F"/>
<path opacity="0.2" d="M414.03 135.854H398.75V148.568H414.03V135.854Z" fill="#38D39F"/>
<path opacity="0.2" d="M434.915 135.854H419.636V148.568H434.915V135.854Z" fill="#38D39F"/>
<path opacity="0.2" d="M455.795 135.854H440.515V148.568H455.795V135.854Z" fill="#38D39F"/>
<path opacity="0.2" d="M476.68 135.854H461.401V148.568H476.68V135.854Z" fill="#38D39F"/>
<path opacity="0.2" d="M497.56 135.854H482.28V148.568H497.56V135.854Z" fill="#38D39F"/>
<path opacity="0.2" d="M518.445 135.854H503.166V148.568H518.445V135.854Z" fill="#38D39F"/>
<path opacity="0.2" d="M539.331 135.854H524.051V148.568H539.331V135.854Z" fill="#38D39F"/>
<path opacity="0.2" d="M560.21 135.854H544.931V148.568H560.21V135.854Z" fill="#38D39F"/>
<path opacity="0.4" d="M581.096 135.854H565.816V148.568H581.096V135.854Z" fill="#38D39F"/>
<path d="M601.975 135.854H586.696V148.568H601.975V135.854Z" fill="#38D39F"/>
<path opacity="0.7" d="M79.8978 151.962H64.6185V164.675H79.8978V151.962Z" fill="#38D39F"/>
<path opacity="0.7" d="M100.783 151.962H85.504V164.675H100.783V151.962Z" fill="#38D39F"/>
<path opacity="0.7" d="M121.663 151.962H106.383V164.675H121.663V151.962Z" fill="#38D39F"/>
<path opacity="0.7" d="M142.548 151.962H127.269V164.675H142.548V151.962Z" fill="#38D39F"/>
<path opacity="0.7" d="M163.434 151.962H148.154V164.675H163.434V151.962Z" fill="#38D39F"/>
<path opacity="0.2" d="M184.313 151.962H169.034V164.675H184.313V151.962Z" fill="#38D39F"/>
<path opacity="0.2" d="M205.199 151.962H189.919V164.675H205.199V151.962Z" fill="#38D39F"/>
<path opacity="0.2" d="M226.078 151.962H210.799V164.675H226.078V151.962Z" fill="#38D39F"/>
<path opacity="0.2" d="M246.964 151.962H231.684V164.675H246.964V151.962Z" fill="#38D39F"/>
<path opacity="0.2" d="M267.849 151.962H252.57V164.675H267.849V151.962Z" fill="#38D39F"/>
<path opacity="0.2" d="M288.729 151.962H273.449V164.675H288.729V151.962Z" fill="#38D39F"/>
<path d="M309.614 151.962H294.335V164.675H309.614V151.962Z" fill="#38D39F"/>
<path opacity="0.2" d="M330.494 151.962H315.214V164.675H330.494V151.962Z" fill="#38D39F"/>
<path opacity="0.2" d="M351.379 151.962H336.1V164.675H351.379V151.962Z" fill="#38D39F"/>
<path opacity="0.2" d="M372.265 151.962H356.985V164.675H372.265V151.962Z" fill="#38D39F"/>
<path d="M393.144 151.962H377.865V164.675H393.144V151.962Z" fill="#38D39F"/>
<path opacity="0.2" d="M414.03 151.962H398.75V164.675H414.03V151.962Z" fill="#38D39F"/>
<path opacity="0.2" d="M434.915 151.962H419.636V164.675H434.915V151.962Z" fill="#38D39F"/>
<path opacity="0.2" d="M455.795 151.962H440.515V164.675H455.795V151.962Z" fill="#38D39F"/>
<path opacity="0.2" d="M476.68 151.962H461.401V164.675H476.68V151.962Z" fill="#38D39F"/>
<path opacity="0.2" d="M497.56 151.962H482.28V164.675H497.56V151.962Z" fill="#38D39F"/>
<path opacity="0.2" d="M518.445 151.962H503.166V164.675H518.445V151.962Z" fill="#38D39F"/>
<path opacity="0.2" d="M539.331 151.962H524.051V164.675H539.331V151.962Z" fill="#38D39F"/>
<path opacity="0.2" d="M560.21 151.962H544.931V164.675H560.21V151.962Z" fill="#38D39F"/>
<path opacity="0.2" d="M581.096 151.962H565.816V164.675H581.096V151.962Z" fill="#38D39F"/>
<path d="M601.975 151.962H586.696V164.675H601.975V151.962Z" fill="#38D39F"/>
<path d="M441.342 198.735C452.877 198.735 462.227 190.954 462.227 181.356C462.227 171.758 452.877 163.978 441.342 163.978C429.807 163.978 420.456 171.758 420.456 181.356C420.456 190.954 429.807 198.735 441.342 198.735Z" fill="#767D9F"/>
<path d="M440.258 159.248C442.342 166.817 444.111 174.442 445.564 182.124C446.002 184.406 446.391 186.813 445.397 188.971C444.564 190.771 442.869 192.176 441.539 193.751C440.21 195.326 439.203 197.344 440.012 199.148C440.821 200.953 443.18 201.939 445.433 202.448C451.877 203.893 458.747 202.841 465.162 201.276C468.067 200.654 470.851 199.695 473.434 198.426C476.153 196.99 478.381 194.997 480.429 192.944C489.779 183.509 495.9 172.186 501.662 160.932C497.96 161.213 494.231 160.756 490.782 159.6C487.334 158.444 484.266 156.622 481.831 154.284C479.471 151.977 477.74 148.762 479.07 145.941C475.171 147.72 470.541 147.84 466.342 149.056C463.738 149.884 461.232 150.91 458.855 152.121C455.988 153.5 453.137 154.905 450.302 156.337C447.062 157.962 444.025 159.407 440.258 159.248Z" fill="#AE6E79"/>
<path d="M483.939 172.296C480.28 178.221 475.518 183.918 468.72 187.446C461.922 190.975 452.77 191.932 445.96 188.443C442.606 186.739 440.066 184.147 437.137 181.964C434.208 179.781 430.549 177.912 426.614 178.196C422.277 178.51 418.881 181.326 415.976 184.023C411.568 188.119 407.309 192.39 404.189 197.24C398.199 206.559 396.78 217.454 397.043 228.02C397.307 238.585 399.146 249.096 399.188 259.662C399.247 272.66 396.6 285.553 393.923 298.356C418.54 295.834 443.187 301.347 467.857 303.435C483.646 304.785 499.554 304.756 515.426 304.721C518.217 304.721 521.188 304.661 523.512 303.375C524.933 302.513 526.081 301.377 526.86 300.066C529.052 296.702 529.933 292.864 530.544 289.071C532.095 279.493 532.143 269.794 532.185 260.125C532.293 236.702 532.395 213.193 528.819 189.953C527.938 184.237 526.812 178.49 524.177 173.143C521.542 167.795 517.241 162.876 511.228 160.01C507.364 158.166 498.41 154.957 493.858 156.816C488.749 158.889 486.389 168.328 483.939 172.296Z" fill="#767D9F"/>
<path d="M485.76 238.441C484.832 223.988 481.052 208.563 489.096 195.734C491.073 192.585 483.981 188.652 486.173 185.602C488.849 181.884 490.877 177.868 492.199 173.676C492.654 172.236 493.019 170.711 492.588 169.265C491.792 166.629 488.659 165.059 486 163.454C483.065 161.68 481.555 156.273 480.609 153.347C479.663 150.422 488.138 153.945 491.546 152.904C496.278 151.463 502.291 152.37 507.011 153.831C509.646 154.638 512.509 154.708 515.318 154.767C520.775 154.887 526.249 155.002 531.664 154.444C534.096 154.189 536.533 153.806 538.977 153.92C545.212 154.214 550.633 157.763 554.322 161.959C558.012 166.156 560.36 171.045 563.384 175.59C565.906 179.378 568.913 182.956 571.063 186.898C572.968 190.387 574.172 194.135 575.363 197.863L578.436 207.427C578.974 208.795 579.229 210.229 579.191 211.668C579.035 213.198 578.22 214.623 577.394 215.984C574.268 221.027 570.521 225.785 566.211 230.183C559.749 236.776 551.902 242.722 548.063 250.616C546.566 253.691 545.733 256.961 544.973 260.22C541.906 273.256 539.726 286.426 538.444 299.667C531.445 296.972 524.109 294.931 516.57 293.582C512.812 292.913 509.013 292.414 505.19 292.087C501.842 291.798 497.524 292.346 494.337 291.588C489.006 290.327 488.419 282.827 487.611 278.899C486.317 272.645 486.06 266.28 486.012 259.961C485.952 252.774 486.221 245.603 485.76 238.441Z" fill="#4C4981"/>
<path d="M368.695 211.414C371.216 223.375 373.996 235.371 379.476 246.609C379.338 246.719 379.2 246.819 379.063 246.918C378.577 247.262 378.074 247.586 377.547 247.915C376.319 248.633 374.972 249.241 373.954 250.178C373.568 250.536 373.264 250.95 373.055 251.399C372.867 251.749 372.77 252.129 372.77 252.513C372.77 252.897 372.867 253.276 373.055 253.627C370.198 254.678 366.88 254.354 363.676 254.255C360.914 254.17 358.237 254.255 356.021 255.515C352.942 257.28 352.014 260.669 351.517 263.749C351.333 264.872 351.175 265.996 351.044 267.123C350.916 268.169 350.812 269.219 350.732 270.273C350.461 273.757 350.423 277.251 350.618 280.739C350.65 281.376 350.692 282.014 350.744 282.652C340.957 282.458 332.039 278.212 323.6 274.085C321.671 273.143 319.683 272.151 318.431 270.596C317.277 269.069 316.789 267.259 317.047 265.468C317.047 265.214 317.101 264.97 317.143 264.711C317.411 263.232 317.871 261.781 318.515 260.385C321.155 254.436 325.047 248.926 330.009 244.112C332.153 242.029 334.567 239.991 335.567 237.374C336.004 236.233 336.166 235.022 336.609 233.886C338.597 228.962 345.773 226.634 348.229 221.855C348.828 220.713 349.103 219.462 349.846 218.366C350.514 217.455 351.377 216.653 352.391 215.999C352.829 215.695 353.284 215.401 353.733 215.107C357.942 212.362 361.997 209.463 365.898 206.41C366.624 205.842 367.343 205.267 368.054 204.685C367.959 206.941 368.174 209.198 368.695 211.414V211.414Z" fill="#4C4981"/>
<path d="M429.051 176.038C428.189 176.796 427.255 177.509 426.338 178.216L426.093 178.401L425.122 179.148C423.361 180.413 421.837 181.89 420.6 183.529L420.498 183.669C417.444 188.219 418.576 193.821 419.426 198.989C420.481 205.429 420.956 211.926 420.846 218.426C420.69 227.397 419.42 236.308 419.396 245.269C419.396 247.302 419.45 249.33 419.558 251.364C419.732 254.668 420.031 257.967 420.391 261.267C420.78 264.885 421.247 268.498 421.684 272.112C422.032 274.907 422.361 277.698 422.637 280.489C422.774 281.935 422.906 283.375 423.014 284.82C423.14 286.515 423.242 288.214 423.301 289.909C423.343 290.985 423.367 292.057 423.367 293.133C423.367 293.746 423.367 294.354 423.367 294.962C423.367 296.129 423.329 297.291 423.254 298.451C423.174 299.943 423.052 301.438 422.888 302.936C422.703 304.566 422.373 306.345 420.996 307.492C420.912 307.561 420.822 307.626 420.732 307.691L418.791 307.492C405.414 306.159 391.908 305.959 378.482 306.894C378.775 305.209 379.045 303.529 379.308 301.84C379.428 301.043 379.548 300.24 379.662 299.438C379.793 298.521 379.919 297.604 380.039 296.687C380.177 295.69 380.303 294.693 380.422 293.696C380.734 291.128 381.007 288.558 381.243 285.986C381.59 282.235 381.854 278.478 382.034 274.713C382.121 272.916 382.189 271.116 382.237 269.316C382.305 267.083 382.337 264.848 382.333 262.612C382.333 260.439 382.311 258.263 382.267 256.084C382.267 255.366 382.231 254.648 382.159 253.936C382.108 253.294 382.002 252.656 381.842 252.027C381.397 250.576 380.796 249.161 380.045 247.8C379.913 247.541 379.788 247.302 379.662 247.028C379.59 246.893 379.524 246.754 379.458 246.619C382.908 244.063 385.364 240.639 387.724 237.27C391.551 231.842 395.468 226.176 396.109 219.906C396.75 213.636 393.006 206.594 385.807 204.68C383.848 204.182 381.776 204.043 379.758 203.748C377.853 203.469 373.882 202.836 371.678 201.7C370.48 202.723 369.282 203.729 368.084 204.715C368.157 203.21 368.599 201.732 369.384 200.374L370.234 200.409C370.165 200.25 370.132 200.081 370.138 199.911C370.138 199.378 370.582 198.775 371.528 198.107C374.349 196.113 378.787 195.67 380.566 192.973C381.309 191.852 381.435 190.516 382.034 189.34C383.753 185.986 388.688 184.75 391.659 182.069C394.63 179.388 395.372 175.59 397.774 172.6C399.568 170.416 402.057 168.69 404.962 167.616C405.201 167.521 405.447 167.426 405.692 167.342C410.664 165.572 416.569 165.169 421.72 165.179C423.721 165.179 428.908 165.229 431.447 166.071C431.859 166.193 432.236 166.385 432.555 166.634C435.263 169.086 431.052 174.264 429.051 176.038Z" fill="#4C4981"/>
<path d="M369.587 200.026C374.214 198.867 379.072 198.484 383.878 198.901C388.684 199.318 393.342 200.525 397.582 202.453C401.895 204.446 405.764 207.227 408.136 210.816C411.7 216.198 411.544 222.687 411.292 228.832C411.167 231.907 411.005 235.092 409.376 237.853C407.489 241.047 403.931 243.24 400.302 245.034C398.028 246.242 395.537 247.138 392.922 247.691C388.898 248.418 384.717 247.8 380.662 247.192C376.254 246.515 371.522 245.697 368.461 242.966C366.664 241.381 365.682 239.323 364.712 237.31C363.318 234.402 361.921 231.498 360.519 228.598C358.093 223.559 357.273 219.368 360.477 214.459C361.933 212.221 363.712 210.128 365.149 207.875C365.868 206.729 368.443 200.32 369.587 200.026Z" fill="#4C4981"/>
<path d="M621.315 286.181V301.082C609.029 305.329 595.849 307.498 582.545 307.462H421.013C420.93 307.532 420.84 307.596 420.75 307.661L418.809 307.462H131.474C107.366 307.462 85.0247 302.049 66.7028 292.829V270.078L204.893 256.806H205.001L285.476 262.478L306.302 263.973L317.119 264.735L339.508 266.315L351.026 267.128L367.796 268.314L370.156 268.478L382.243 269.331L398.642 270.452L421.702 272.077L460.143 274.793L487.186 276.702L531.592 279.836L540.037 280.43L540.948 280.494L541.738 280.549L552.891 281.337L565.133 282.204L566.553 282.303L621.315 286.181Z" fill="#504F60"/>
<path d="M458.999 285.633L285.818 261.037L279.104 289.291L358.489 297.2L382.932 299.747L450.171 288.728L458.999 285.633Z" fill="#9C9CA1"/>
<path d="M369.354 298.331L456.118 284.76C456.552 284.691 456.999 284.703 457.427 284.795C457.855 284.886 458.254 285.056 458.594 285.29C458.934 285.525 459.207 285.82 459.394 286.153C459.581 286.486 459.677 286.85 459.676 287.217V287.217C459.678 287.801 459.434 288.366 458.986 288.815C458.538 289.264 457.915 289.568 457.226 289.674L372.492 302.877L369.354 298.331Z" fill="#9C9CA1"/>
<path d="M406.992 255.655C409.693 255.446 412.43 255.092 414.862 254.095C417.857 252.854 420.187 250.716 422.96 249.141C429.057 245.652 437.215 245.184 444.205 247.187C451.195 249.191 457.028 253.482 461.113 258.605C463.827 262.019 465.863 266.375 463.946 270.143C463.289 271.295 462.46 272.373 461.479 273.353L456.483 278.785C455.534 279.927 454.393 280.949 453.093 281.82C451.225 282.951 448.901 283.415 446.613 283.694C440.533 284.432 434.346 284.013 428.219 284.352C417.695 284.935 407.417 287.756 396.87 287.661C390.808 287.606 384.825 286.59 378.901 285.573L352.685 281.087C348.121 280.31 342.964 279.174 340.814 275.73C339.849 274.18 339.67 272.386 339.556 270.641C339.244 265.837 339.556 260.494 343.557 257.031C347.318 253.781 353.266 252.754 357.758 250.352C363.256 247.407 365.071 248.359 370.869 250.571C382.18 254.834 394.625 256.585 406.992 255.655V255.655Z" fill="#AE6E79"/>
<path opacity="0.05" d="M406.992 255.655C409.693 255.446 412.43 255.092 414.862 254.095C417.857 252.854 420.187 250.716 422.96 249.141C429.057 245.652 437.215 245.184 444.205 247.187C451.195 249.191 457.028 253.482 461.113 258.605C463.827 262.019 465.863 266.375 463.946 270.143C463.289 271.295 462.46 272.373 461.479 273.353L456.483 278.785C455.534 279.927 454.393 280.949 453.093 281.82C451.225 282.951 448.901 283.415 446.613 283.694C440.533 284.432 434.346 284.013 428.219 284.352C417.695 284.935 407.417 287.756 396.87 287.661C390.808 287.606 384.825 286.59 378.901 285.573L352.685 281.087C348.121 280.31 342.964 279.174 340.814 275.73C339.849 274.18 339.67 272.386 339.556 270.641C339.244 265.837 339.556 260.494 343.557 257.031C347.318 253.781 353.266 252.754 357.758 250.352C363.256 247.407 365.071 248.359 370.869 250.571C382.18 254.834 394.625 256.585 406.992 255.655V255.655Z" fill="black"/>
<path d="M512.27 248.822C504.915 251.189 497.518 253.567 489.815 254.977C476.902 257.344 463.389 256.971 450.578 259.677C443.81 261.112 437.083 263.425 430.129 262.956C427.021 262.747 424.02 261.959 420.995 261.361C404.003 257.873 384.687 259.004 370.887 267.975C366.167 271.04 362.304 274.863 358.8 278.939C358.05 279.82 357.544 280.827 357.316 281.89C357.089 282.952 357.146 284.043 357.484 285.085C357.822 286.127 358.433 287.094 359.273 287.916C360.112 288.739 361.159 289.397 362.34 289.844C367.707 291.898 373.455 293.173 379.338 293.617C387.203 294.195 395.103 293.268 402.925 292.341C414.533 290.97 426.146 289.595 437.724 288.055C441.881 287.502 446.038 286.928 450.218 286.49C480.304 283.325 510.934 287.173 541.098 284.531C544.146 284.262 547.249 283.913 550.022 282.832C557.042 280.091 560.516 272.864 559.066 266.515C557.617 260.165 552.022 254.887 545.29 251.648C539.648 248.922 533.563 247.82 527.28 246.664C521.446 245.533 517.888 247.028 512.27 248.822Z" fill="#AE6E79"/>
<path opacity="0.1" d="M576.795 210.865C580.113 214.484 580.82 219.338 580.461 223.868C580.101 228.398 578.807 232.879 578.616 237.429C578.352 243.669 580.161 249.889 579.856 256.108C579.64 260.459 578.4 264.725 576.933 268.902C575.202 273.831 572.698 279.129 567.23 281.496C559.97 284.641 544.745 282.872 537.108 285.334C537.803 281.73 544.464 276.512 545.158 272.909C545.638 270.417 546.123 267.855 545.608 265.358C544.949 262.174 542.703 259.348 540.037 256.996C535.797 253.253 530.262 250.437 524.183 249.52C518.104 248.603 503.22 249.355 498.356 252.55C497.757 249.251 508.898 246.071 512.815 245.358C514.768 244.995 517.008 245.199 518.571 244.167C521.566 242.214 519.391 238.321 519.535 235.196C519.649 232.704 521.398 230.422 521.751 227.93C522.35 223.943 519.224 219.881 520.452 215.969C520.907 214.523 521.919 213.253 522.62 211.877C524.752 207.666 523.818 202.861 522.68 198.386C521.973 195.575 521.284 192.405 523.165 190.008C524.908 187.77 529.855 195.739 533.024 195.371C543.487 194.15 552.957 187.696 561.408 192.978C565.714 195.67 566.277 198.461 567.996 202.303C569.667 205.961 573.998 207.835 576.795 210.865Z" fill="black"/>
<path d="M578.592 210.865C581.91 214.484 582.617 219.338 582.257 223.868C581.898 228.398 580.604 232.879 580.413 237.429C580.149 243.669 581.958 249.889 581.653 256.109C581.437 260.459 580.197 264.726 578.73 268.902C576.999 273.831 574.495 279.129 569.027 281.496C561.767 284.641 546.542 282.872 538.905 285.334C539.6 281.73 546.26 276.512 546.955 272.909C547.434 270.417 547.92 267.855 547.404 265.359C546.746 262.174 544.5 259.348 541.834 256.996C537.594 253.253 532.059 250.437 525.98 249.52C519.901 248.603 505.017 249.355 500.153 252.55C499.554 249.251 510.695 246.071 514.612 245.358C516.564 244.995 518.804 245.199 520.368 244.167C523.363 242.214 521.188 238.321 521.332 235.196C521.446 232.705 523.195 230.422 523.548 227.93C524.147 223.943 521.021 219.881 522.248 215.969C522.704 214.524 523.716 213.253 524.417 211.877C526.549 207.666 525.615 202.861 524.477 198.386C523.77 195.575 523.081 192.405 524.962 190.008C526.705 187.77 530.113 186.923 533.281 186.549C543.89 185.355 554.639 187.663 563.229 192.978C567.535 195.67 568.098 198.461 569.817 202.303C571.464 205.961 575.795 207.835 578.592 210.865Z" fill="#4C4981"/>
<path d="M182.283 187.252L214.848 287.397C215.247 288.624 216.087 289.72 217.254 290.54C218.422 291.361 219.862 291.865 221.382 291.987L367.958 303.704C369.153 303.8 370.358 303.656 371.472 303.285C372.586 302.913 373.577 302.325 374.361 301.57C375.146 300.814 375.702 299.913 375.982 298.942C376.263 297.971 376.259 296.959 375.972 295.989L340.311 175.191C339.886 173.755 338.864 172.491 337.425 171.623C335.986 170.756 334.224 170.34 332.452 170.452L188.949 179.383C187.847 179.454 186.778 179.726 185.817 180.181C184.857 180.636 184.029 181.261 183.392 182.013C182.755 182.764 182.326 183.624 182.134 184.529C181.942 185.435 181.993 186.365 182.283 187.252V187.252Z" fill="#9C9CA1"/>
<path d="M472.841 206.794C481.739 206.794 488.953 200.713 488.953 193.213C488.953 185.712 481.739 179.632 472.841 179.632C463.942 179.632 456.729 185.712 456.729 193.213C456.729 200.713 463.942 206.794 472.841 206.794Z" fill="white"/>
<path d="M486.072 168.438C486.072 168.438 489.468 176.841 479.447 180.374L478.166 182.238L484.443 187.392C484.443 187.392 492.181 175.645 491.342 171.473C491.342 171.473 490.145 167.237 486.072 168.438Z" fill="white"/>
<path d="M474.692 206.794C483.272 206.794 490.228 201.006 490.228 193.866C490.228 186.726 483.272 180.938 474.692 180.938C466.111 180.938 459.155 186.726 459.155 193.866C459.155 201.006 466.111 206.794 474.692 206.794Z" fill="#38D39F"/>
<path d="M491.42 173.382L488.953 169.993L485.359 169.569C486.126 158.411 482.646 155.086 482.646 155.086L481.837 155.022L478.315 154.738L471.691 149.016V147.391C480.999 148.313 486.144 151.992 488.923 156.303C493.834 163.868 491.42 173.382 491.42 173.382Z" fill="#38D39F"/>
<path opacity="0.1" d="M481.867 152.968V155.022L478.345 154.738L471.721 149.016C471.721 149.016 481.969 150.925 481.867 152.968Z" fill="black" stroke="#4C4981" stroke-miterlimit="10"/>
<path opacity="0.1" d="M491.42 173.382L488.953 169.993V156.322C493.834 163.868 491.42 173.382 491.42 173.382Z" fill="black" stroke="#4C4981" stroke-miterlimit="10"/>
<path d="M445.982 199.18C450.116 197.194 449.938 190.498 445.584 184.224C441.231 177.95 434.351 174.474 430.217 176.46C426.083 178.446 426.261 185.142 430.615 191.416C434.968 197.69 441.848 201.166 445.982 199.18Z" fill="white"/>
<path d="M440.431 186.724C444.786 192.998 450.128 197.19 445.996 199.183C441.863 201.177 429.824 200.18 425.47 193.9C421.115 187.621 425.068 178.949 429.201 176.955C433.334 174.962 436.071 180.434 440.431 186.724Z" fill="#38D39F"/>
<path opacity="0.1" d="M479.202 141.521C479.202 161.57 462.712 180.893 438.617 180.893C427.044 180.893 415.946 177.067 407.763 170.259C399.58 163.45 394.983 154.215 394.983 144.586C394.983 134.956 399.58 125.721 407.763 118.913C415.946 112.104 427.044 108.278 438.617 108.278C462.712 108.298 479.202 121.466 479.202 141.521Z" fill="black"/>
<path d="M438.617 179.916C462.715 179.916 482.25 163.661 482.25 143.609C482.25 123.557 462.715 107.302 438.617 107.302C414.518 107.302 394.983 123.557 394.983 143.609C394.983 163.661 414.518 179.916 438.617 179.916Z" fill="#AE6E79"/>
<path d="M434.783 127.521C439.976 129.111 443.049 133.576 447.709 136.063C454.297 139.552 462.874 138.65 470.397 136.925C474.59 135.973 478.974 134.812 483.101 135.869C483.708 136.092 484.377 136.172 485.035 136.098C485.934 135.884 486.377 135.056 486.671 134.319C491.774 121.66 489.48 107.322 481.777 95.6096C479.789 92.5894 477.405 89.6688 474.123 87.5707C471.535 85.921 468.492 84.8395 465.426 83.9175C459.821 82.2427 454.025 81.052 448.128 80.3641C447.087 80.2066 446.023 80.1781 444.971 80.2793C443.528 80.4737 442.234 81.1216 440.947 81.6997C435.431 84.1598 429.315 85.5421 423.062 85.7416C414.676 86.0057 405.093 84.3611 398.631 88.8365C390.844 94.2041 392.785 104.675 387.736 111.961C384.393 116.781 377.949 120.279 376.888 125.767C376.612 127.444 376.741 129.15 377.266 130.785C379.734 139.228 389.556 145.767 400.026 145.921C401.634 146.023 403.244 145.749 404.674 145.129C405.611 144.597 406.438 143.942 407.124 143.19C413.982 136.432 421.828 123.554 434.783 127.521Z" fill="#444053"/>
<path opacity="0.1" d="M486.671 130.646C486.377 131.383 485.934 132.211 485.036 132.425C484.378 132.499 483.708 132.419 483.101 132.196C478.974 131.139 474.566 132.3 470.403 133.252C462.874 134.977 454.279 135.899 447.715 132.39C443.049 129.898 439.982 125.413 434.783 123.848C421.828 119.861 413.982 132.759 407.106 139.517C406.42 140.269 405.593 140.924 404.656 141.456C403.226 142.076 401.616 142.35 400.008 142.248C389.574 142.094 379.746 135.555 377.248 127.112C377.11 126.614 376.99 126.116 376.9 125.617C376.9 125.662 376.9 125.702 376.871 125.747C376.594 127.424 376.723 129.13 377.248 130.765C379.716 139.208 389.544 145.747 400.008 145.901C401.616 146.003 403.226 145.729 404.656 145.109C405.593 144.577 406.42 143.922 407.106 143.17C413.982 136.412 421.828 123.534 434.783 127.501C439.982 129.091 443.049 133.556 447.715 136.043C454.303 139.532 462.874 138.63 470.403 136.905C474.596 135.954 478.974 134.792 483.101 135.849C483.708 136.073 484.378 136.152 485.036 136.078C485.934 135.864 486.377 135.037 486.671 134.299C488.729 129.119 489.638 123.671 489.354 118.221C489.178 122.448 488.274 126.632 486.671 130.646V130.646Z" fill="black"/>
</svg>
